<svg xmlns="http://www.w3.org/2000/svg" width="84.813" height="87.938" viewBox="0 0 84.813 87.938" style="fill:#fff;">
  <path d="M237.033,380.873h-6.281a3.141,3.141,0,0,1,0-6.281h6.281A3.141,3.141,0,1,1,237.033,380.873Zm-12.339-20.907a3.14,3.14,0,0,1-4.441-4.441l4.441-4.441a3.141,3.141,0,1,1,4.442,4.441Zm-4.628,24.511h0a18.818,18.818,0,0,1-8.157,29.847v-6.881a12.548,12.548,0,1,0-13.087-21.4,18.822,18.822,0,1,0-30.881,18.271v7.719A25.111,25.111,0,0,1,187.608,366.2,18.82,18.82,0,0,1,220.066,384.477ZM202.487,365.17a12.521,12.521,0,0,0-8.893,3.691,25.264,25.264,0,0,1,8.841,9.193,18.012,18.012,0,0,1,12.38,2.077h0A12.544,12.544,0,0,0,202.487,365.17Zm0-12.562a3.14,3.14,0,0,1-3.14-3.141v-6.281a3.141,3.141,0,1,1,6.281,0v6.281A3.141,3.141,0,0,1,202.487,352.608Zm-22.207,7.358-4.441-4.441a3.14,3.14,0,1,1,4.441-4.441l4.442,4.441A3.141,3.141,0,0,1,180.28,359.966Zm-2.917,42.891a3.141,3.141,0,1,1-3.141,3.14A3.14,3.14,0,0,1,177.363,402.857Zm0,12.562a3.141,3.141,0,1,1-3.141,3.14A3.14,3.14,0,0,1,177.363,415.419Zm12.562-6.281a3.141,3.141,0,1,1-3.14,3.14A3.14,3.14,0,0,1,189.925,409.138Zm0,12.562a3.141,3.141,0,1,1-3.14,3.14A3.14,3.14,0,0,1,189.925,421.7Zm12.562-18.843a3.141,3.141,0,1,1-3.14,3.14A3.14,3.14,0,0,1,202.487,402.857Zm0,12.562a3.141,3.141,0,1,1-3.14,3.14A3.14,3.14,0,0,1,202.487,415.419Z" transform="translate(-155.375 -340.031)"/>
</svg>
